<svg width="156" height="40" viewBox="0 0 156 40" fill="none" xmlns="http://www.w3.org/2000/svg">
<path d="M17.3431 2.65705L20.0001 0L40.0001 20L20.0001 40L17.343 37.3429L34.686 20L17.3431 2.65705Z" fill="#078D57"/>
<path d="M13.8745 6.1258L16.5315 3.46875L33.0629 20.0002L16.5315 36.5316L13.8745 33.8746L27.7488 20.0002L13.8745 6.1258Z" fill="#078D57"/>
<path d="M0 20.0003L13.0628 6.9375L26.1256 20.0003L13.0628 33.0631L10.4058 30.4061L20.8115 20.0003L13.0628 12.2516L2.65705 22.6573L0 20.0003Z" fill="#078D57"/>
<path d="M13.0629 13.875L10.4059 16.532L13.8745 20.0006L6.93726 26.9378L9.5943 29.5948L19.1886 20.0006L13.0629 13.875Z" fill="#078D57"/>
<path d="M6.12556 26.1259L3.46851 23.4689L9.56635 17.3711L12.2234 20.0281L6.12556 26.1259Z" fill="#078D57"/>
<path d="M48 29.3853V11.2255H51.2897V18.9133H59.7046V11.2255H63.0031V29.3853H59.7046V21.671H51.2897V29.3853H48Z" fill="#002A19"/>
<path d="M72.7348 29.3853H66.581V11.2255H72.8589C74.6619 11.2255 76.2107 11.5891 77.5053 12.3162C78.8058 13.0373 79.8048 14.0748 80.5024 15.4285C81.1999 16.7822 81.5487 18.4019 81.5487 20.2877C81.5487 22.1793 81.197 23.805 80.4935 25.1646C79.796 26.5242 78.7881 27.5676 77.4698 28.2947C76.1575 29.0218 74.5792 29.3853 72.7348 29.3853ZM69.8707 26.539H72.5752C73.8402 26.539 74.8954 26.3084 75.7407 25.8474C76.5861 25.3804 77.2216 24.6858 77.6472 23.7636C78.0728 22.8355 78.2856 21.6769 78.2856 20.2877C78.2856 18.8985 78.0728 17.7458 77.6472 16.8295C77.2216 15.9073 76.592 15.2187 75.7585 14.7635C74.9309 14.3024 73.9023 14.0718 72.6727 14.0718H69.8707V26.539Z" fill="#002A19"/>
<path d="M90.868 29.3853V11.2255H97.678C99.0731 11.2255 100.244 11.4856 101.189 12.0058C102.141 12.526 102.859 13.2413 103.344 14.1516C103.835 15.0561 104.08 16.0847 104.08 17.2374C104.08 18.4019 103.835 19.4364 103.344 20.3409C102.853 21.2453 102.129 21.9577 101.172 22.4779C100.214 22.9922 99.0346 23.2493 97.6336 23.2493H93.1203V20.5448H97.1903C98.006 20.5448 98.674 20.403 99.1942 20.1192C99.7144 19.8355 100.099 19.4453 100.347 18.9488C100.601 18.4522 100.728 17.8817 100.728 17.2374C100.728 16.5931 100.601 16.0256 100.347 15.5349C100.099 15.0443 99.7115 14.663 99.1854 14.3911C98.6652 14.1132 97.9942 13.9743 97.1725 13.9743H94.1577V29.3853H90.868Z" fill="#002A19"/>
<path d="M106.796 29.3853V15.7655H109.908V18.0354H110.05C110.298 17.2492 110.724 16.6433 111.327 16.2177C111.936 15.7861 112.63 15.5704 113.41 15.5704C113.588 15.5704 113.786 15.5792 114.005 15.597C114.229 15.6088 114.415 15.6295 114.563 15.6591V18.6118C114.427 18.5645 114.211 18.5231 113.916 18.4877C113.626 18.4463 113.345 18.4256 113.073 18.4256C112.488 18.4256 111.962 18.5527 111.495 18.8069C111.034 19.0552 110.67 19.401 110.404 19.8443C110.138 20.2877 110.005 20.799 110.005 21.3783V29.3853H106.796Z" fill="#002A19"/>
<path d="M116.696 29.3853V15.7655H119.906V29.3853H116.696ZM118.31 13.8324C117.801 13.8324 117.364 13.664 116.997 13.327C116.631 12.9841 116.447 12.5733 116.447 12.0945C116.447 11.6097 116.631 11.1989 116.997 10.8619C117.364 10.5191 117.801 10.3477 118.31 10.3477C118.824 10.3477 119.261 10.5191 119.622 10.8619C119.988 11.1989 120.172 11.6097 120.172 12.0945C120.172 12.5733 119.988 12.9841 119.622 13.327C119.261 13.664 118.824 13.8324 118.31 13.8324Z" fill="#002A19"/>
<path d="M126.416 11.2255V29.3853H123.206V11.2255H126.416Z" fill="#002A19"/>
<path d="M135.658 29.6513C134.328 29.6513 133.175 29.3587 132.2 28.7735C131.224 28.1883 130.468 27.3695 129.93 26.3173C129.398 25.2651 129.132 24.0355 129.132 22.6286C129.132 21.2217 129.398 19.9892 129.93 18.931C130.468 17.8729 131.224 17.0512 132.2 16.466C133.175 15.8807 134.328 15.5881 135.658 15.5881C136.988 15.5881 138.141 15.8807 139.116 16.466C140.092 17.0512 140.845 17.8729 141.377 18.931C141.915 19.9892 142.184 21.2217 142.184 22.6286C142.184 24.0355 141.915 25.2651 141.377 26.3173C140.845 27.3695 140.092 28.1883 139.116 28.7735C138.141 29.3587 136.988 29.6513 135.658 29.6513ZM135.676 27.0799C136.397 27.0799 137 26.8819 137.485 26.4858C137.969 26.0838 138.33 25.5459 138.566 24.872C138.809 24.1981 138.93 23.4473 138.93 22.6197C138.93 21.7862 138.809 21.0325 138.566 20.3586C138.33 19.6788 137.969 19.1379 137.485 18.7359C137 18.334 136.397 18.133 135.676 18.133C134.937 18.133 134.322 18.334 133.831 18.7359C133.347 19.1379 132.983 19.6788 132.741 20.3586C132.504 21.0325 132.386 21.7862 132.386 22.6197C132.386 23.4473 132.504 24.1981 132.741 24.872C132.983 25.5459 133.347 26.0838 133.831 26.4858C134.322 26.8819 134.937 27.0799 135.676 27.0799Z" fill="#002A19"/>
<path d="M151.71 15.7655V18.2482H143.88V15.7655H151.71ZM145.813 12.5024H149.023V25.2887C149.023 25.7203 149.088 26.0513 149.218 26.2818C149.354 26.5065 149.531 26.6602 149.75 26.7429C149.969 26.8257 150.211 26.8671 150.477 26.8671C150.678 26.8671 150.861 26.8523 151.027 26.8227C151.198 26.7932 151.328 26.7666 151.417 26.7429L151.958 29.2523C151.787 29.3114 151.541 29.3765 151.222 29.4474C150.909 29.5183 150.524 29.5597 150.069 29.5715C149.265 29.5952 148.541 29.474 147.897 29.208C147.252 28.9361 146.741 28.5164 146.363 27.9489C145.99 27.3814 145.807 26.672 145.813 25.8208V12.5024Z" fill="#002A19"/>
</svg>
